<svg width="20" height="20" viewBox="0 0 20 20" fill="none" xmlns="http://www.w3.org/2000/svg">
<path d="M13.457 11.6406C14.043 10.7188 14.3867 9.625 14.3867 8.44922C14.3867 5.16406 11.7266 2.5 8.44531 2.5C5.16016 2.5 2.5 5.16406 2.5 8.44922C2.5 11.7344 5.16016 14.3984 8.44141 14.3984C9.63281 14.3984 10.7422 14.0469 11.6719 13.4453L11.9414 13.2578L16.1836 17.5L17.5 16.1602L13.2617 11.918L13.457 11.6406ZM11.7734 5.125C12.6602 6.01172 13.1484 7.19141 13.1484 8.44531C13.1484 9.69922 12.6602 10.8789 11.7734 11.7656C10.8867 12.6523 9.70703 13.1406 8.45312 13.1406C7.19922 13.1406 6.01953 12.6523 5.13281 11.7656C4.24609 10.8789 3.75781 9.69922 3.75781 8.44531C3.75781 7.19141 4.24609 6.01172 5.13281 5.125C6.01953 4.23828 7.19922 3.75 8.45312 3.75C9.70703 3.75 10.8867 4.23828 11.7734 5.125Z" fill="#BAABAB"/>
</svg>
