<svg width="41" height="41" viewBox="0 0 41 41" fill="none" xmlns="http://www.w3.org/2000/svg">
<circle cx="20.5" cy="20.5" r="20.5" fill="black"/>
<path d="M20.6221 13.163C16.5831 13.163 13.2784 16.4638 13.2784 20.498C13.2784 24.5323 16.5831 27.833 20.6221 27.833C22.6416 27.833 24.5143 27.0445 25.8361 25.7059L24.5143 24.3856C23.5229 25.3758 22.1459 25.9993 20.6037 25.9993C17.5561 25.9993 15.096 23.5421 15.096 20.498C15.096 17.454 17.5561 14.9968 20.6037 14.9968C22.1276 14.9968 23.4494 15.6569 24.4408 16.6655L22.4397 18.6643H27.9475V13.163L25.7627 15.3452C24.4408 14.0249 22.6233 13.163 20.6037 13.163H20.6221Z" fill="white"/>
</svg>
