<svg width="15" height="15" viewBox="0 0 15 15" fill="none" xmlns="http://www.w3.org/2000/svg">
<g clip-path="url(#clip0_306_292)">
<path d="M7.5 14.5313C6.10935 14.5313 4.74993 14.1189 3.59365 13.3463C2.43737 12.5737 1.53615 11.4755 1.00398 10.1907C0.471797 8.90595 0.332554 7.4922 0.603857 6.12827C0.875159 4.76435 1.54482 3.5115 2.52816 2.52816C3.5115 1.54482 4.76435 0.875159 6.12827 0.603857C7.4922 0.332554 8.90595 0.471797 10.1907 1.00398C11.4755 1.53615 12.5737 2.43737 13.3463 3.59365C14.1189 4.74993 14.5313 6.10935 14.5313 7.5C14.5313 9.36481 13.7905 11.1532 12.4718 12.4718C11.1532 13.7905 9.36481 14.5313 7.5 14.5313ZM7.5 1.40625C6.29477 1.40625 5.11661 1.76365 4.1145 2.43324C3.11239 3.10282 2.33133 4.05454 1.87011 5.16803C1.40889 6.28151 1.28821 7.50676 1.52334 8.68884C1.75847 9.87091 2.33885 10.9567 3.19107 11.8089C4.0433 12.6612 5.1291 13.2415 6.31117 13.4767C7.49324 13.7118 8.71849 13.5911 9.83198 13.1299C10.9455 12.6687 11.8972 11.8876 12.5668 10.8855C13.2364 9.8834 13.5938 8.70523 13.5938 7.5C13.5938 5.88384 12.9517 4.33387 11.8089 3.19107C10.6661 2.04827 9.11617 1.40625 7.5 1.40625Z" fill="white"/>
<path d="M7.96875 6.5625H7.03125V10.7812H7.96875V6.5625Z" fill="white"/>
<path d="M7.5 5.625C7.31458 5.625 7.13332 5.57002 6.97915 5.467C6.82498 5.36399 6.70482 5.21757 6.63386 5.04627C6.56291 4.87496 6.54434 4.68646 6.58051 4.5046C6.61669 4.32275 6.70598 4.1557 6.83709 4.02459C6.9682 3.89348 7.13525 3.80419 7.3171 3.76801C7.49896 3.73184 7.68746 3.75041 7.85877 3.82136C8.03007 3.89232 8.17649 4.01248 8.2795 4.16665C8.38252 4.32082 8.4375 4.50208 8.4375 4.6875C8.4375 4.93614 8.33873 5.1746 8.16291 5.35041C7.9871 5.52623 7.74864 5.625 7.5 5.625Z" fill="white"/>
</g>
<defs>
<clipPath id="clip0_306_292">
<rect width="15" height="15" fill="white"/>
</clipPath>
</defs>
</svg>
