<svg width="16" height="16" viewBox="0 0 16 16" fill="none" xmlns="http://www.w3.org/2000/svg">
<path d="M11.457 9.64062C12.043 8.71875 12.3867 7.625 12.3867 6.44922C12.3867 3.16406 9.72656 0.5 6.44531 0.5C3.16016 0.5 0.5 3.16406 0.5 6.44922C0.5 9.73438 3.16016 12.3984 6.44141 12.3984C7.63281 12.3984 8.74219 12.0469 9.67188 11.4453L9.94141 11.2578L14.1836 15.5L15.5 14.1602L11.2617 9.91797L11.457 9.64062ZM9.77344 3.125C10.6602 4.01172 11.1484 5.19141 11.1484 6.44531C11.1484 7.69922 10.6602 8.87891 9.77344 9.76562C8.88672 10.6523 7.70703 11.1406 6.45312 11.1406C5.19922 11.1406 4.01953 10.6523 3.13281 9.76562C2.24609 8.87891 1.75781 7.69922 1.75781 6.44531C1.75781 5.19141 2.24609 4.01172 3.13281 3.125C4.01953 2.23828 5.19922 1.75 6.45312 1.75C7.70703 1.75 8.88672 2.23828 9.77344 3.125Z" fill="#BAABAB"/>
</svg>
