<svg width="416" height="416" viewBox="0 0 416 416" fill="none" xmlns="http://www.w3.org/2000/svg">
<path d="M89.57 262.275C85.0135 270.198 78.975 266.721 74.4055 274.651C69.8425 282.575 75.8875 286.052 71.3115 293.989C66.7485 301.938 60.697 298.46 56.1405 306.377" stroke="#947474" stroke-width="5" stroke-miterlimit="10" stroke-linecap="round" stroke-linejoin="round"/>
<path d="M206.706 66.183C209.891 66.183 212.472 68.7635 212.472 71.955C212.472 75.1465 209.898 77.7335 206.706 77.7335C203.508 77.7335 200.928 75.153 200.928 71.955" stroke="#947474" stroke-width="5" stroke-miterlimit="10" stroke-linecap="round" stroke-linejoin="round"/>
<path d="M355.011 277.011L333.138 263.302" stroke="#947474" stroke-width="5" stroke-miterlimit="10" stroke-linecap="round" stroke-linejoin="round"/>
<path d="M255.19 354.146L268.899 332.273" stroke="#947474" stroke-width="5" stroke-miterlimit="10" stroke-linecap="round" stroke-linejoin="round"/>
<path d="M159.991 131.248C165.295 137.39 168.779 144.099 170.118 149.968C171.464 155.838 170.658 160.875 167.401 163.683C160.882 169.312 146.998 163.917 136.39 151.632C131.209 145.632 127.771 139.106 126.36 133.347C124.885 127.289 125.652 122.083 128.986 119.21C135.499 113.568 149.39 118.969 159.991 131.248Z" stroke="#947474" stroke-width="5" stroke-miterlimit="10" stroke-linecap="round" stroke-linejoin="round"/>
<path d="M170.268 150.781L178.893 197.36" stroke="#947474" stroke-width="5" stroke-miterlimit="10" stroke-linecap="round" stroke-linejoin="round"/>
<path d="M126.308 133.296L134.524 177.639" stroke="#947474" stroke-width="5" stroke-miterlimit="10" stroke-linecap="round" stroke-linejoin="round"/>
<path d="M141.05 247.682L133.282 205.809L185.159 196.189L192.933 238.075" stroke="#947474" stroke-width="5" stroke-miterlimit="10" stroke-linecap="round" stroke-linejoin="round"/>
<path d="M203.242 257.51L216.899 331.194L152.035 343.22L138.385 269.522" stroke="#947474" stroke-width="5" stroke-miterlimit="10" stroke-linecap="round" stroke-linejoin="round"/>
<path d="M178.327 262.106L134.914 270.159L131.092 249.516L202.871 236.223L206.706 256.867L203.242 257.498" stroke="#947474" stroke-width="5" stroke-miterlimit="10" stroke-linecap="round" stroke-linejoin="round"/>
<path d="M306.124 160.245C318.123 165.172 322.146 178.191 315.113 189.319L296.517 218.718C289.484 229.84 274.046 234.877 262.047 229.957" stroke="#947474" stroke-width="5" stroke-miterlimit="10" stroke-linecap="round" stroke-linejoin="round"/>
<path d="M234.409 212.218C237.458 217.444 242.027 221.735 247.559 224.01" stroke="#947474" stroke-width="5" stroke-miterlimit="10" stroke-linecap="round" stroke-linejoin="round"/>
<path d="M265.129 143.429C254.644 139.126 244.14 143.507 239.805 153.27" stroke="#947474" stroke-width="5" stroke-miterlimit="10" stroke-linecap="round" stroke-linejoin="round"/>
<path d="M247.559 224.01L262.041 229.95" stroke="#947474" stroke-width="5" stroke-miterlimit="10" stroke-linecap="round" stroke-linejoin="round"/>
<path d="M265.129 143.429L306.124 160.244" stroke="#947474" stroke-width="5" stroke-miterlimit="10" stroke-linecap="round" stroke-linejoin="round"/>
<path d="M215.846 211.64L239.792 153.276" stroke="#947474" stroke-width="5" stroke-miterlimit="10" stroke-linecap="round" stroke-linejoin="round"/>
<path d="M317.258 185.048L285.584 262.275L234.344 241.248" stroke="#947474" stroke-width="5" stroke-miterlimit="10" stroke-linecap="round" stroke-linejoin="round"/>
<path d="M333.138 86.489L297.694 71.955L265.129 143.429L306.124 160.245L333.138 86.489Z" stroke="#947474" stroke-width="5" stroke-miterlimit="10" stroke-linecap="round" stroke-linejoin="round"/>
</svg>
